<svg xmlns="http://www.w3.org/2000/svg" data-name="Layer 1" viewBox="0 0 512 640" x="0px" y="0px"><title>Org Chart</title><path d="M255.75,120.09c19.49,0,35.34-15.6,35.34-34.78s-15.85-34.79-35.34-34.79S220.4,66.12,220.4,85.31,236.26,120.09,255.75,120.09Zm0-57.57c12.87,0,23.34,10.22,23.34,22.79s-10.47,22.78-23.34,22.78S232.4,97.87,232.4,85.31,242.88,62.52,255.75,62.52Z"/><path d="M310.37,196.8V166.47a40.24,40.24,0,0,0-40.2-40.19H241.32a40.24,40.24,0,0,0-40.19,40.19V196.8a6,6,0,0,0,6,6h97.24A6,6,0,0,0,310.37,196.8Zm-12-6H213.13V166.47a28.23,28.23,0,0,1,28.19-28.19h28.85a28.23,28.23,0,0,1,28.2,28.19Z"/><path d="M494,346.46H451.8v-38.7a26,26,0,0,0-26-26h-164v-36.4c3.65-.22,7.31-.59,11-1.15a116.05,116.05,0,0,0,76.53-46.32,112.26,112.26,0,0,0,20.61-84.07c-9.66-62.14-68.94-104.75-132.17-95a116.05,116.05,0,0,0-76.53,46.32,112.32,112.32,0,0,0-20.61,84.08c8.48,54.51,55.16,94,109.18,96.27v36.27H81.9a26,26,0,0,0-26,26v38.7H18a8,8,0,0,0-8,8v96a8,8,0,0,0,8,8H140.11a8,8,0,0,0,8-8v-96a8,8,0,0,0-8-8H67.9v-38.7a14,14,0,0,1,14-14H249.75v52.7H194.94a8,8,0,0,0-8,8v96a8,8,0,0,0,8,8H317.06a8,8,0,0,0,8-8v-96a8,8,0,0,0-8-8H261.75v-52.7H425.8a14,14,0,0,1,14,14v38.7H371.89a8,8,0,0,0-8,8v96a8,8,0,0,0,8,8H494a8,8,0,0,0,8-8v-96A8,8,0,0,0,494,346.46ZM152.43,147.37a100.38,100.38,0,0,1,18.43-75.14,104.14,104.14,0,0,1,68.68-41.55,106.68,106.68,0,0,1,16.23-1.25c50.27,0,94.44,36,102.25,86.23a100.33,100.33,0,0,1-18.43,75.14,104.12,104.12,0,0,1-68.68,41.55C214.23,241.09,161.08,203,152.43,147.37ZM136.11,446.5H22v-88H136.11Zm177,0H198.94v-88H313.06Zm176.94,0H375.89v-88H490Z"/><text x="0" y="527" fill="#000000" font-size="5px" font-weight="bold" font-family="'Helvetica Neue', Helvetica, Arial-Unicode, Arial, Sans-serif">Created by Iconsparks</text><text x="0" y="532" fill="#000000" font-size="5px" font-weight="bold" font-family="'Helvetica Neue', Helvetica, Arial-Unicode, Arial, Sans-serif">from the Noun Project</text></svg>